<?xml version="1.0" encoding="UTF-8" standalone="no"?>
<!-- Created with Inkscape (http://www.inkscape.org/) -->

<svg
   version="1.1"
   id="svg2"
   width="980"
   height="980"
   viewBox="0 0 980 980"
   sodipodi:docname="logo.svg"
   inkscape:version="1.2.2 (b0a8486541, 2022-12-01)"
   xmlns:inkscape="http://www.inkscape.org/namespaces/inkscape"
   xmlns:sodipodi="http://sodipodi.sourceforge.net/DTD/sodipodi-0.dtd"
   xmlns="http://www.w3.org/2000/svg"
   xmlns:svg="http://www.w3.org/2000/svg">
  <defs
     id="defs6" />
  <sodipodi:namedview
     id="namedview4"
     pagecolor="#ffffff"
     bordercolor="#000000"
     borderopacity="0.25"
     inkscape:showpageshadow="2"
     inkscape:pageopacity="0.0"
     inkscape:pagecheckerboard="0"
     inkscape:deskcolor="#d1d1d1"
     showgrid="false"
     inkscape:zoom="1.0479592"
     inkscape:cx="458.51022"
     inkscape:cy="489.52288"
     inkscape:window-width="3440"
     inkscape:window-height="1371"
     inkscape:window-x="0"
     inkscape:window-y="0"
     inkscape:window-maximized="1"
     inkscape:current-layer="g8" />
  <g
     inkscape:groupmode="layer"
     inkscape:label="Image"
     id="g8">
    <path
       style="fill:#6af0c3;stroke:none;stroke-width:1.33333"
       d="m 381.33333,108 h -112 c -14.91333,0 -36.05466,-3.87947 -49.328,4.09973 C 198.53467,125.0064 208,174.392 208,196 c 0,9.36133 -1.55733,20.088 4.55867,27.98 9.10133,11.744 21.54933,7.69733 34.108,10.68667 -3.02,12.724 2.372,28.47466 -4.75067,40 -18.58133,30.068 -55.43867,46.17066 -67.196,81.33333 -11.97067,35.80267 -4.05333,83.816 -4.05333,121.33333 v 252 c 0,44.996 -4.744,90.16134 36,120.32 C 233.07733,869.20267 262.17867,868 293.33333,868 H 410.66667 L 424,950.66667 l 53.71333,-60 c 6.148,-7.01334 14.13334,-19.864 23.62,-22.24267 C 519.55067,863.85733 543.86267,868 562.66667,868 H 692 c 33.75067,0 65.22133,2.00533 93.33333,-20.02 39.62667,-31.04667 33.33334,-76.44533 33.33334,-121.31333 V 476 c 0,-36.42267 7.948,-83.72 -2.71867,-118.66667 -11.48133,-37.61466 -54.40533,-52.704 -70.548,-86.66666 -5.14933,-10.83334 -2.73333,-25.65467 -2.73333,-37.33334 7.44533,0 15.67066,0.99334 22.66666,-2.044 C 788.40667,221.27333 780,180.34533 780,160 c 0,-15.26533 4.07333,-35.402 -9.35333,-46.14187 C 758.368,104.0368 737.392,108 722.66667,108 H 605.33333 V 57.333333 c 0,-8.084666 1.296,-17.224666 -4.52533,-23.748 -10.23733,-11.472 -33.68533,-6.918666 -47.47467,-6.918666 H 432 c -12.94267,0 -34.70533,-4.158534 -44.81333,5.858133 C 373.384,46.203467 381.33333,89.7052 381.33333,108 M 578.66667,54.666667 V 108 H 409.33333 V 54.666667 H 578.66667 M 752,136 l 1.33333,69.33333 H 234.66667 L 236,136 h 516 m -37.33333,97.33333 c 0,22.92534 -0.96,43.64934 14.024,62.66667 18.24266,23.15467 55.96133,43.436 60.64266,74.66667 C 738.412,381.20533 690.244,395.476 637.33333,390.44 567.78,383.82133 501.936,355.11467 432,352.052 386.30267,350.05067 340.56933,353.28267 296,363.84533 263.11467,371.64 231.43467,384.41867 198.66667,392 c 0,-48.32 42.376,-65.05867 66.52666,-101.33333 11.336,-17.028 9.47334,-37.82934 9.47334,-57.33334 h 440 m 76,164 V 688 c 0,34.804 10.56533,90.55067 -7.90667,121.33333 C 757.5,851.43067 700.15467,840 658.66667,840 H 340 C 302.93867,840 246.30133,851.16933 217.45333,822.54267 193.59067,798.86133 200,762.52 200,732 V 513.33333 444 c 0,-6.18667 -2.56533,-19.30267 3.09067,-23.444 C 226.056,403.73867 268.73467,399.42933 296,392.7 c 55.76533,-13.76133 113.832,-16.94933 170.66667,-8.13467 56.33466,8.73734 109.65866,28.44934 166.66666,33.87467 52.952,5.04 107.14934,-4.77733 157.33334,-21.10667 M 344,542.03867 c -51.67067,11.85866 -31.71733,91.656 20,79.72 49.85467,-11.50534 30.308,-91.26534 -20,-79.72 m 146.66667,-0.0853 c -51.94134,9.43067 -34.75334,89.916 17.33333,80.08934 51.42,-9.7 33.64933,-89.348 -17.33333,-80.08934 m 144,0.004 c -50.37467,9.51867 -34,90.27067 16,80.67067 52.92533,-10.16133 36.812,-90.652 -16,-80.67067 M 268,841.77733 c 1.03067,0 0.21333,0.664 -0.444,0.44534 L 268,841.77733 m 74.66667,0 c 1.03066,0 0.21333,0.664 -0.444,0.44534 l 0.444,-0.44534 m 12,-0.444 -1.33334,1.33334 1.33334,-1.33334 m 10.66666,0 -1.33333,1.33334 1.33333,-1.33334 m 21.33334,0 -1.33334,1.33334 1.33334,-1.33334 m 32,0 -1.33334,1.33334 1.33334,-1.33334 m 28,0 -1.33334,1.33334 1.33334,-1.33334 m 78.66666,0 -1.33333,1.33334 1.33333,-1.33334 m 42.66667,0 -1.33333,1.33334 L 568,841.33333 m 10.66667,0 -1.33334,1.33334 1.33334,-1.33334 m 10.66666,0 -1.33333,1.33334 1.33333,-1.33334 m 74.66667,0 -1.33333,1.33334 L 664,841.33333 m 21.33333,0 L 684,842.66667 Z"
       id="path297"
       sodipodi:nodetypes="cscsccccssssccccssssscsccscscsssscccccccccccccccccccccccscsscscsccccccccccccccccccccccccccccccccccccccccccccccccccccc" />
  </g>
</svg>
